<?xml version="1.0" standalone="no"?>
<!DOCTYPE svg PUBLIC "-//W3C//DTD SVG 20010904//EN"
 "http://www.w3.org/TR/2001/REC-SVG-20010904/DTD/svg10.dtd">
<svg version="1.0" xmlns="http://www.w3.org/2000/svg"
 width="328.000000pt" height="328.000000pt" viewBox="0 0 328.000000 328.000000"
 preserveAspectRatio="xMidYMid meet">
<metadata>
Created by potrace 1.11, written by Peter Selinger 2001-2013
</metadata>
<g transform="translate(0.000000,328.000000) scale(0.100000,-0.100000)"
fill="#000000" stroke="none">
<path d="M1530 3270 l-25 -6 23 -13 c46 -25 10 -33 -70 -16 -39 9 -136 9 -199
0 -61 -8 -172 -36 -184 -45 -5 -5 -14 -9 -20 -10 -44 -10 -45 -24 -4 -46 17
-8 27 -19 23 -24 -5 -4 -45 -13 -89 -20 -118 -18 -234 -66 -303 -126 -46 -39
-45 -49 3 -57 45 -8 95 -28 95 -38 0 -5 -5 -9 -11 -9 -44 0 -269 -176 -269
-211 0 -5 4 -8 9 -5 4 3 41 8 82 10 63 4 70 3 49 -7 -99 -47 -191 -143 -250
-262 -54 -108 -53 -117 13 -90 18 7 18 7 0 -26 -10 -19 -33 -50 -52 -69 -56
-58 -112 -139 -142 -206 -38 -83 -38 -97 -2 -79 16 7 38 16 50 19 l22 7 -23
-48 c-31 -65 -57 -171 -61 -253 -3 -67 6 -103 19 -81 13 21 23 11 24 -26 1
-21 3 -73 5 -115 2 -50 -1 -78 -8 -78 -5 0 -28 17 -50 37 -30 27 -41 32 -43
20 -5 -25 26 -76 80 -134 48 -50 50 -55 48 -105 -5 -152 3 -203 48 -292 32
-66 82 -113 167 -159 41 -22 79 -51 92 -70 13 -18 60 -70 105 -114 222 -219
382 -333 593 -423 66 -28 129 -55 140 -60 50 -21 129 -33 235 -36 141 -3 173
2 165 26 -6 18 -2 19 95 35 149 24 360 81 360 97 0 4 -5 8 -11 8 -25 0 5 19
63 40 71 26 263 117 321 153 l38 23 -32 25 -31 25 58 38 c62 41 153 128 219
209 31 39 36 50 24 58 -8 5 -20 9 -26 9 -19 0 -17 4 36 83 77 113 128 234 156
367 25 119 25 123 11 111 -11 -9 -12 -4 -6 27 4 21 9 43 12 48 3 5 9 27 13 49
3 22 10 63 15 90 9 51 11 340 2 363 -3 10 -8 10 -18 1 -22 -18 -29 -3 -30 64
-1 67 -12 193 -19 217 -2 8 -7 31 -10 50 -9 53 -46 170 -54 170 -4 0 -15 -14
-25 -31 -20 -33 -32 -29 -40 12 -8 50 -120 268 -188 368 l-37 54 -10 -26 c-6
-15 -13 -27 -17 -27 -9 0 -31 29 -54 71 -28 52 -105 134 -180 191 -59 45 -65
48 -68 29 -2 -12 -8 -21 -13 -21 -5 0 -44 29 -87 65 -75 63 -175 123 -252 150
-38 13 -38 13 -35 -11 1 -13 -2 -27 -7 -30 -5 -3 -46 10 -91 30 -45 19 -110
41 -143 49 -64 15 -181 19 -224 7z"/>
</g>
</svg>
